<?xml version="1.0" encoding="utf-8"?>
<!-- Generator: Adobe Illustrator 27.5.0, SVG Export Plug-In . SVG Version: 6.00 Build 0)  -->
<svg version="1.1" xmlns="http://www.w3.org/2000/svg" xmlns:xlink="http://www.w3.org/1999/xlink" x="0px" y="0px"
	 viewBox="0 0 1200 800" style="enable-background:new 0 0 1200 800;" xml:space="preserve">
<g id="Background">
	
		<radialGradient id="SVGID_1_" cx="633.0032" cy="399.5905" r="1410.1654" gradientTransform="matrix(1.5 0 0 0.6667 -300 133.593)" gradientUnits="userSpaceOnUse">
		<stop  offset="0.169" style="stop-color:transparent"/>
		<stop  offset="0.9919" style="stop-color:transparent"/>
	</radialGradient>
	<rect style="fill:url(#SVGID_1_);" width="1200" height="800"/>
</g>
<g id="Graphic_Elements">
	<g>
		<defs>
			<rect id="SVGID_00000087373793274715521260000005440265111194962351_" width="1200" height="800"/>
		</defs>
		<clipPath id="SVGID_00000052089350545244114180000007167994966258481305_">
			<use xlink:href="#SVGID_00000087373793274715521260000005440265111194962351_"  style="overflow:visible;"/>
		</clipPath>
		<g style="clip-path:url(#SVGID_00000052089350545244114180000007167994966258481305_);">
			
			<g>
				<path style="fill:#9EA5B0;" d="M1219.356,696.964c0.632,0-62.597,125.194-62.597,125.194l-62.491-124.983L1219.356,696.964z"/>
				<path style="fill:#55719E;" d="M1156.819,822.158c-0.632,0,62.597-125.194,62.597-125.194l62.491,124.983L1156.819,822.158z"/>
				<path style="fill:#CED2D8;" d="M1219.365,696.964c-0.632,0,62.597-125.194,62.597-125.194l62.491,124.983L1219.365,696.964z"/>
				<path style="fill:#CED0DD;" d="M1094.272,947.563c-0.632,0,62.597-125.194,62.597-125.194l62.491,124.983L1094.272,947.563z"/>
				<path style="fill:#2A4E86;" d="M1031.726,822.158c-0.632,0,62.597-125.194,62.597-125.194l62.491,124.983L1031.726,822.158z"/>
				<path style="fill:#7F95B6;" d="M1281.912,822.158c-0.632,0,62.597-125.194,62.597-125.194L1407,821.947L1281.912,822.158z"/>
				<path style="fill:#3D4B61;" d="M1219.365,947.352c-0.632,0,62.597-125.194,62.597-125.194l62.491,124.983L1219.365,947.352z"/>
				<path style="fill:#152743;" d="M1281.902,822.158c0.632,0-62.597,125.194-62.597,125.194l-62.491-124.983L1281.902,822.158z"/>
				<path style="fill:#9EA5B0;" d="M1406.995,822.158c0.632,0-62.597,125.194-62.597,125.194l-62.492-124.983L1406.995,822.158z"/>
				<path style="fill:#0C1E39;" d="M1281.902,571.771c0.632,0-62.597,125.194-62.597,125.194l-62.491-124.983L1281.902,571.771z"/>
				<path style="fill:#7F95B6;" d="M1344.449,446.577c0.632,0-62.597,125.194-62.597,125.194l-62.492-124.983L1344.449,446.577z"/>
				<path style="fill:#7F95B6;" d="M1262.542,311.516c0.632,0-62.597,125.194-62.597,125.194l-62.491-124.983L1262.542,311.516z"/>
				<path style="fill:#7F95B6;" d="M1156.819,1072.546c-0.632,0,62.597-125.194,62.597-125.194l62.491,124.983L1156.819,1072.546z"
					/>
				<path style="fill:#2A4E86;" d="M1344.449,696.964c0.632,0-62.597,125.194-62.597,125.194l-62.492-124.983L1344.449,696.964z"/>
				<path style="fill:#9EA5B0;" d="M1136.139,561.904c0.632,0-62.597,125.194-62.597,125.194l-62.491-124.983L1136.139,561.904z"/>
				
					<linearGradient id="SVGID_00000150804870903558816690000003436753144247693197_" gradientUnits="userSpaceOnUse" x1="1136.1439" y1="499.3068" x2="1261.2369" y2="499.3068">
					<stop  offset="0.169" style="stop-color:#F5F5F5"/>
					<stop  offset="0.9919" style="stop-color:#C7C7C7"/>
				</linearGradient>
				<path style="fill:url(#SVGID_00000150804870903558816690000003436753144247693197_);" d="M1136.149,561.904
					c-0.632,0,62.597-125.194,62.597-125.194l62.491,124.983L1136.149,561.904z"/>
				<path style="fill:#CED0DD;" d="M1073.602,687.097c-0.632,0,62.597-125.194,62.597-125.194l62.491,124.983L1073.602,687.097z"/>
				<path style="fill:#0C1E39;" d="M1198.686,436.71c0.632,0-62.597,125.194-62.597,125.194l-62.491-124.983L1198.686,436.71z"/>
			</g>
		</g>
	</g>
</g>
</svg>
