<?xml version="1.0" encoding="utf-8"?>
<svg version="1.1" xmlns="http://www.w3.org/2000/svg" xmlns:xlink="http://www.w3.org/1999/xlink" x="0px" y="0px"
	 viewBox="0 0 2500 2000" style="enable-background:new 0 0 2500 2000;" xml:space="preserve">
<g id="BG">
	<g>
		<rect x="0" y="0" style="fill:transparent;" width="2500" height="2000"/>
	</g>
</g>
<g id="Layer_1">
	<g>
		<g>
			<g>
				<path style="fill:#B5AAAA;" d="M1865.936,926.428c-18.035-49.924-125.951-42.598-131.78-59.073
					c-11.36-36.351-34.08-118.147-24.993-129.506c18.853-23.566,67.491-65.705,56.694-93.887
					c-3.843-10.032-12.37-17.413-20.698-24.195c-51.625-42.05-108.137-78.092-168.033-107.177
					c-42.034-2.59-49.405,64.357-88.354,70.758c-38.948,6.401-48.334,1.571-86.339-9.09c-23.809-6.675-61.03-15.756-70.435-38.624
					c-8.657-21.053-12.725-51.867-29.674-67.067c-10.521-9.432-26.305-9.039-40.406-8.097
					c-40.161,2.68-164.178,18.257-173.941,57.305c-7.775,31.102,3.887,50.54,19.44,93.309c6.17,16.977,6.446,35.931-4.839,49.774
					c-38.684,47.453-97.758,92.894-127.295,72.445c-8.247-5.707-64.211-28.511-73.942-26.075
					c-6.656,1.67-10.818,8.109-14.176,14.091c-25.539,45.488-43.621,95.137-53.425,146.371c-4.206,21.977,9.526,43.48,31.105,49.397
					l58.466,16.022c-4.911,55.781,21.912,110.457,31.35,165.651c-20.139,33.846-79.193,65.56-95.253,88.959
					c-21.58,31.44,114.704,150.558,156.132,169.166c11.971,5.378,57.506-50.827,82.794-63.316
					c9.03-4.457,138.238,35.019,176.862,62.285c8.337,5.887,32.699,46.995,35.396,55.246c10.963,33.546,20.78,47.333,55.049,38.903
					c67.596-16.638,134.347-44.661,198.228-72.162c19.626-8.448,42.362-22.508,38.529-43.527l-25.015-80.704
					c29.537-24.992,98.082-118.322,112.693-125.627c8.712-4.359,91.03,48.314,107.146,17.045
					C1804.514,1130.874,1872.272,943.974,1865.936,926.428z M1466.77,1021.505c-22.196,33.067-59.43,52.963-98.622,59.013
					c-16.607,5.254-34.053,7.66-51.891,6.114c-42.949-3.729-83.991-24.838-107.469-61.818
					c-15.619-24.602-19.359-53.323-13.698-80.58c0.039-14.96,2.482-29.907,7.963-43.737c2.487-6.273,5.673-12.014,8.905-17.717
					c-6.419-12.357-1.679-27.484,9.966-34.822c11.637-7.334,24.26-13.393,37.318-18.128c2.518-1.965,4.849-4.093,7.452-5.981
					c6.362-4.611,14.57-4.62,21.807-1.901c16.378-2.839,33.784-3.519,51.272-1.901c15.802-1.777,31.918-0.766,46.812,4.016
					c3.753,0.788,7.477,1.79,11.139,3.096c26.868,9.595,48.298,28.537,63.798,52.248
					C1488.419,920.549,1495.113,979.284,1466.77,1021.505z"/>
				<g style="opacity:0.59;">
					<path style="fill:#968D8D;" d="M1577.382,1253.606c10.37-8.773,25.567-26.011,41.531-44.953
						c-120.931-13.864-239.77-44.61-350.559-94.401c-169.427-76.148-310.238-200.91-396.99-361.898
						c-17.241,36.702-30.003,75.506-37.625,115.334c-4.206,21.977,9.526,43.48,31.105,49.397l58.466,16.022
						c-4.911,55.781,21.912,110.457,31.35,165.651c-20.139,33.846-79.193,65.56-95.253,88.959
						c-21.58,31.44,114.704,150.558,156.132,169.166c11.971,5.378,57.506-50.827,82.794-63.316
						c9.03-4.457,138.238,35.019,176.862,62.285c8.337,5.887,32.699,46.995,35.396,55.246c10.963,33.546,20.78,47.333,55.049,38.903
						c67.596-16.638,134.347-44.661,198.228-72.162c19.626-8.448,42.362-22.508,38.529-43.527L1577.382,1253.606z"/>
				</g>
				<path style="fill:#685D5D;" d="M1250.069,842.742c47.467-28.191,109.55-31.458,159.178-6.438
					c56.16,28.313,85.677,89.846,70.008,151.45c-27.387,107.676-170.092,130.783-244.138,56.276
					c-52.393-52.719-40.633-133.004,1.175-188.55c13.577-18.038-16.862-35.538-30.286-17.703
					c-45.87,60.943-58.578,149.345-11.02,213.048c35.842,48.01,96.42,73.819,155.779,71.989
					c65.678-2.025,126.886-38.594,153.329-99.913c31.303-72.587,9.201-157.044-54.943-203.388
					c-62.303-45.014-151.46-45.854-216.785-7.058C1212.974,823.973,1230.597,854.307,1250.069,842.742L1250.069,842.742z"/>
				<path style="fill:#685D5D;" d="M1090.177,648.456c-20.745,24.9-44.857,50.34-74.177,65.114
					c-22.457,11.316-31.955,3.518-52.54-5.249c-17.4-7.411-38.799-18.545-58.164-18.676c-25.782-0.175-36.422,27.519-45.98,47.077
					c-14.976,30.643-27.039,62.762-35.62,95.776c-7.172,27.594-14.417,56.406,5.132,80.679c20.062,24.91,60.685,28.858,89.82,36.843
					c-4.292-5.637-8.584-11.274-12.875-16.911c-3.705,58.951,21.453,113.361,31.976,170.31c0.589-4.505,1.179-9.009,1.768-13.514
					c-14.294,22.221-37.792,38.061-58.296,54.092c-14.057,10.991-33.99,23.724-39.988,41.508
					c-9.584,28.414,20.16,60.497,37.019,79.623c28.293,32.099,61.077,60.877,95.553,86.162
					c10.747,7.882,23.833,19.139,37.072,22.503c16.619,4.222,30.833-9.263,42.313-19.305c16.186-14.16,31.519-34.13,50.867-44.075
					c-3.97,2.04-2.411,0.264,3.632,1.331c8.252,1.458,16.432,3.831,24.5,6.066c40.916,11.337,83.296,24.753,120.732,45.064
					c16.342,8.866,24.025,23.077,33.233,39.053c9.458,16.41,12.973,36.41,25.413,51.014c12.996,15.259,31.071,18.733,50.276,15.625
					c34.357-5.56,68.798-18.752,101.316-30.798c36.914-13.676,73.695-28.536,109.561-44.786
					c22.92-10.384,48.535-27.627,47.42-55.893c-0.578-14.666-7.759-29.794-12.048-43.63c-4.599-14.838-9.199-29.675-13.798-44.513
					c-1.503,5.688-3.007,11.375-4.51,17.063c24.546-21.468,44.602-48.521,65.326-73.534c9.988-12.055,19.888-24.225,30.371-35.857
					c2.405-2.669,9.942-8.079,11.087-11.62c0.583-0.529,1.167-1.059,1.75-1.588c-2.45,1.887-5.442,2.407-8.975,1.562
					c0.02-0.102,6.636,2.088,6.791,2.165c23.667,11.676,53.716,25.434,80.538,25.393c23.364-0.036,33.988-13.519,41.817-33.162
					c20.645-51.803,38.931-105.12,54.47-158.666c4.926-16.974,14.354-40.055,10.118-58.065
					c-6.589-28.016-38.517-42.797-63.247-50.227c-14.084-4.231-28.581-6.806-43.021-9.47c-7.302-1.347-25.773-3.359-28.692-5.734
					c3.805,3.095-2.467-12.445-3.477-15.939c-2.475-8.565-4.856-17.158-7.121-25.782c-4.632-17.637-9.403-35.63-11.825-53.737
					c-2.163-16.169-1.771-14.604,7.94-25.309c13.34-14.706,27.363-29.267,38.085-46.081c8.026-12.586,14.567-27.424,12.754-42.644
					c-2.693-22.615-22.284-36.868-38.913-49.945c-41.455-32.602-85.571-61.707-132.184-86.409
					c-17.408-9.225-33.083-20.207-53.31-14.28c-15.112,4.429-26.293,15.781-35.59,27.914c-8.562,11.175-15.647,25.835-26.765,34.776
					c-14.255,11.465-38.456,10.304-55.57,7.083c-19.698-3.707-39.928-10.25-58.985-16.491
					c-24.602-8.057-33.849-16.501-41.443-40.859c-6.246-20.037-12.93-42.923-30.536-56.079
					c-16.465-12.303-37.179-11.542-56.72-9.919c-36.176,3.006-72.838,8.419-107.81,18.275
					c-27.025,7.616-64.236,19.405-74.761,48.764c-6.773,18.892-4.07,40.832,1.744,59.535c7.711,24.803,30.639,57.288,13.806,81.926
					c-12.766,18.685,17.615,36.25,30.286,17.703c27.514-40.27-4.914-79.029-13.178-119.541
					c-7.026-34.442,15.358-43.532,44.315-52.468c30.117-9.294,61.694-14.576,92.993-17.907c12.959-1.379,31.32-5.43,43.371-0.655
					c18.94,7.506,21.711,39.146,27.941,56.137c12.689,34.607,47.027,45.295,79.679,54.524c35.392,10.002,76.833,23.072,112.668,6.44
					c27.297-12.67,34.11-43.13,56.25-60.673c14.819-11.743,33.501,5.696,47.421,13.402c22.405,12.402,44.259,25.802,65.475,40.143
					c20.809,14.067,41.481,28.815,60.593,45.136c19.081,16.294,14.918,26.962,1.208,45.534
					c-15.667,21.222-46.757,40.473-46.924,69.081c-0.189,32.205,11.175,66.188,19.878,96.819
					c6.98,24.568,10.349,40.107,36.649,46.853c26.752,6.862,55.475,7.704,80.807,19.654c5.842,2.756,11.929,6.06,16.408,10.786
					c1.781,1.878,6.922,11.347,5.491,5.401c1.274,5.294-1.831,13.65-3.53,20.593c-13.13,53.644-32.605,106.225-51.776,157.951
					c-3.055,8.244-5.472,20.544-10.662,27.778c2.156-3.004-0.933,2.328-1.479,2.604c-2.507,1.269-11.271-0.485-15.091-1.248
					c-15.238-3.042-29.831-9.847-44.068-15.846c-9.321-3.928-20.592-10.53-31.128-10.004c-22.505,1.124-43.192,36.359-55.727,51.445
					c-22.393,26.95-43.841,56.401-70.323,79.561c-4.509,3.943-6.252,11.444-4.51,17.063c3.525,11.37,7.049,22.741,10.574,34.111
					c4.045,13.049,13.429,30.491,13.694,44.177c0.407,21.08-47.128,33.668-62.691,40.208
					c-32.588,13.694-65.459,26.804-98.972,38.077c-16.641,5.598-33.437,10.741-50.408,15.241
					c-8.994,2.385-23.518,8.515-32.292,2.589c-11.828-7.989-16.486-35.522-23.936-48.449c-8.713-15.117-18.159-32.863-32.392-43.516
					c-14.137-10.581-31.808-17.367-47.981-24.105c-37.276-15.53-76.55-29.71-116.143-38.068c-12.108-2.556-22.344-4.625-33.57,1.592
					c-18.307,10.14-33.5,27.122-48.729,41.178c-2.616,2.415-21.39,15.193-21.496,17.915c-0.163,4.202,3.97-2.187,6.184,1.541
					c-0.493-0.83-2.68-1.077-3.396-1.769c-2.242-2.165-6.318-3.633-8.989-5.308c-15.226-9.548-29.44-20.751-43.207-32.269
					c-30.203-25.268-62.503-53.406-83.691-86.998c-11.009-17.455-10.489-17.437,3.675-29.949
					c21.284-18.804,45.683-33.973,65.435-54.541c7.34-7.644,18.002-17.988,19.746-28.838c2.51-15.62-6.752-36.952-10.918-52.069
					c-10.529-38.209-22.641-75.775-20.118-115.91c0.478-7.603-5.786-14.968-12.875-16.911c-11.818-3.239-23.637-6.478-35.455-9.717
					c-13.418-3.677-32.136-5.643-39.2-19.388c-6.951-13.525,0.652-31.574,4.201-45.271c3.924-15.148,8.58-30.111,13.943-44.812
					c5.74-15.735,12.383-31.113,19.859-46.101c2.027-4.064,13.589-26.851,12.084-26.393c5.121-1.557,19.054,5.36,23.864,7.065
					c8.918,3.159,17.79,6.577,26.424,10.451c13.986,6.275,25.443,14.341,41.552,13.75c47.731-1.751,91.613-48.771,119.734-82.524
					C1129.33,656.031,1104.647,631.088,1090.177,648.456z"/>
				<path style="fill:#FFFFFF;" d="M1496.981,773.751c-7.776-4.895-19.67-1.894-23.995,6.292c-4.563,8.637-2.008,18.77,6.292,23.995
					l0,0c1.842,1.16,3.666,2.345,5.458,3.582c1.397,0.965,4.333,2.387,5.281,3.834c-0.496-0.38-0.992-0.76-1.488-1.141
					c0.512,0.404,1.021,0.814,1.525,1.227c0.843,0.687,1.679,1.383,2.507,2.089c1.654,1.413,3.277,2.863,4.865,4.35
					c3.018,2.825,5.913,5.782,8.678,8.855c1.456,1.618,2.875,3.268,4.256,4.95c0.501,0.609,1.867,1.849,2.045,2.544
					c-0.383-0.493-0.766-0.987-1.148-1.48c0.395,0.52,0.785,1.044,1.17,1.571c5.029,6.838,9.459,14.112,13.221,21.721
					c0.965,1.951,1.869,3.928,2.756,5.915c1.196,2.681-0.128-0.598-0.246-0.582c0.105-0.014,1.356,3.473,1.422,3.648
					c1.525,4.079,2.837,8.227,3.991,12.426c2.431,8.843,12.563,15.165,21.573,12.249c9.046-2.927,14.854-12.095,12.249-21.573
					C1556.669,829.208,1531.181,795.281,1496.981,773.751"/>
				<g>
					<path style="fill:#FFFFFF;" d="M1565.577,969.781c22.569,0,22.606-35.075,0-35.075
						C1543.008,934.706,1542.971,969.781,1565.577,969.781L1565.577,969.781z"/>
				</g>
			</g>
			<g>
				<path style="fill:#B5AAAA;" d="M1296.551,1233.876c-4.149-39.131-83.133-52.953-84.414-65.846
					c-1.746-28.179-3.628-91.083,4.925-97.652c17.742-13.629,60.213-35.358,57.427-57.556c-0.991-7.902-5.823-14.724-10.619-21.081
					c-29.724-39.406-64.028-75.353-101.999-106.89c-29.801-9.303-46.955,37.587-76.126,35.303
					c-29.171-2.284-35.073-7.422-60.546-21.822c-15.959-9.018-41.147-22.142-43.87-40.269c-2.507-16.688,0.018-39.591-9.494-53.532
					c-5.905-8.652-17.337-11.162-27.655-12.979c-29.386-5.177-121.421-15.909-135.359,10.473
					c-11.101,21.014-6.145,37.071-2.517,70.612c1.438,13.313-1.718,27.007-12.292,34.975
					c-36.246,27.315-86.813,49.574-104.458,29.626c-4.927-5.568-41.18-31.887-48.616-31.856c-5.087,0.024-9.222,3.924-12.699,7.635
					c-26.434,28.227-48.237,60.769-64.361,95.917c-6.917,15.077-0.836,32.986,13.651,41.064l39.254,21.88
					c-13.406,39.287-3.772,83.394-6.744,124.798c-20.487,20.802-68.611,33.182-84.313,47.185
					c-21.099,18.814,55.932,128.683,82.463,149.409c7.667,5.99,50.392-26.414,70.807-30.93c7.289-1.611,93.319,49.672,116.3,76.135
					c4.96,5.714,15.223,39.617,15.705,46.034c1.956,26.09,6.583,37.752,32.745,37.747c51.606-0.016,104.618-8.378,155.471-16.871
					c15.623-2.609,34.479-8.707,35.439-24.516l-3.727-62.525c25.686-12.765,91.546-67.823,103.357-70.496
					c7.043-1.596,56.982,50.889,74.117,31.231C1216.156,1370.186,1298.007,1247.629,1296.551,1233.876z M992.371,1231.687
					c-21.83,19.877-52.155,27.611-81.44,25.031c-12.885,0.843-25.87-0.512-38.438-4.781c-30.258-10.285-56.069-32.743-66.427-63.519
					c-6.891-20.475-4.501-41.812,4.398-60.432c2.675-10.763,7.079-21.09,13.472-30.076c2.9-4.076,6.21-7.645,9.546-11.179
					c-2.435-10.031,3.654-20.082,13.337-23.305c9.676-3.221,19.834-5.349,30.072-6.447c2.16-0.969,4.215-2.089,6.423-2.987
					c5.396-2.194,11.307-0.747,16.035,2.49c12.293,0.855,24.944,3.445,37.247,7.704c11.69,1.517,23.113,5.096,32.989,11.175
					c2.562,1.231,5.066,2.611,7.471,4.199c17.644,11.662,29.719,29.09,36.682,48.903
					C1025.821,1162.841,1020.246,1206.308,992.371,1231.687z"/>
				<g style="opacity:0.59;">
					<path style="fill:#968D8D;" d="M1030.928,1418.348c9.018-4.481,23.008-14.201,37.852-25.012
						c-84.603-31.38-164.714-74.543-235.659-129.991c-108.494-84.799-187.784-199.531-221.749-330.776
						c-18.906,23.37-34.96,49.047-47.495,76.37c-6.917,15.077-0.836,32.986,13.651,41.064l39.254,21.88
						c-13.406,39.287-3.772,83.394-6.744,124.798c-20.487,20.802-68.611,33.182-84.313,47.185
						c-21.099,18.814,55.932,128.683,82.463,149.409c7.667,5.99,50.392-26.414,70.807-30.93c7.289-1.611,93.319,49.672,116.3,76.135
						c4.96,5.714,15.223,39.617,15.705,46.034c1.956,26.09,6.583,37.752,32.745,37.747c51.606-0.016,104.618-8.378,155.471-16.871
						c15.623-2.609,34.479-8.707,35.439-24.516L1030.928,1418.348z"/>
				</g>
				<path style="fill:#685D5D;" d="M868.973,1069.094c37.622-11.409,80.873-3.526,111.213,21.986
					c32.632,27.44,43.948,72.364,25.655,111.49c-34.744,74.31-141.978,67.872-180.971,0.916
					c-26.429-45.381-3.842-97.877,34.028-128.754c7.399-6.033,6.147-18.519,0-24.802c-7.18-7.339-17.502-5.952-24.802,0
					c-44.042,35.91-69.898,98.062-48.076,153.183c17.385,43.915,58.361,76.055,104.401,85.488
					c51.727,10.598,104.285-7.416,135.385-50.871c34.413-48.084,30.575-113.88-7.623-158.327
					c-37.886-44.083-103.52-60.814-158.533-44.132C838.106,1041.805,847.288,1075.67,868.973,1069.094L868.973,1069.094z"/>
				<path style="fill:#685D5D;" d="M785.161,892.471c-19.423,14.22-42.141,29.613-66.316,33.915
					c-16.415,2.922-23.586-7.778-36.027-16.823c-10.407-7.567-23.352-18.403-36.36-20.943
					c-21.203-4.139-35.708,16.871-47.277,31.135c-15.415,19.006-29.266,39.235-40.785,60.846
					c-10.263,19.256-19.966,38.673-10.862,60.344c10.031,23.879,39.163,34.243,60.398,46.08c-2.687-6.602-5.373-13.203-8.06-19.805
					c-12.855,42.354-5.041,86.061-7.371,129.458c1.712-4.134,3.424-8.267,5.137-12.401c-14.341,13.286-33.697,20.311-51.267,28.253
					c-13.054,5.901-30.55,12.196-37.997,25.439c-11.636,20.693,4.005,49.592,13.611,67.864
					c14.728,28.015,33.241,54.538,53.543,78.789c6.647,7.94,14.483,18.727,23.808,23.795c12.68,6.89,25.972,0.165,37.584-5.699
					c13.246-6.69,27.045-13.748,39.813-21.265c5.721-3.368-3.006-2.961,3.387-0.521c6.738,2.572,13.329,6.857,19.575,10.42
					c25.998,14.834,58.924,31.763,78.669,54.763c18.672,21.75,9.294,55.197,25.921,77.277c8.24,10.943,20.5,15.156,33.796,16.198
					c28.813,2.258,59.23-1.985,87.796-5.555c27.618-3.451,56.171-6.42,83.3-12.741c19.083-4.447,38.879-14.619,42.39-35.761
					c3.508-21.123-1.83-45.855-3.101-67.184c-2.895,5.048-5.791,10.095-8.686,15.143c21.82-11.432,41.359-27.543,61.085-42.152
					c8.721-6.459,17.395-13.02,26.373-19.121c2.497-1.697,9.241-4.502,10.828-6.946c0.336-0.179,0.672-0.358,1.008-0.537
					c4.111-2,0.983-2.066-9.383-0.198c-0.089,0.291,5.405,3.52,5.844,3.943c13.72,13.216,35.689,28.065,54.593,31.66
					c18.393,3.497,29.125-5.945,38.974-19.705c24.434-34.134,47.432-69.925,68.214-106.388
					c6.566-11.521,16.534-25.909,16.767-39.704c0.358-21.267-18.232-38.311-34.55-48.795
					c-16.471-10.582-36.488-15.637-52.579-26.127c3.699,2.411,0.531,8.841,2.248,0.132c0.412-2.09-0.239-5.14-0.327-7.273
					c-0.295-7.189-0.507-14.38-0.61-21.574c-0.2-13.967,0.356-27.777,1.184-41.704c0.135-2.274,0.449-4.697,1.205-6.851
					c1.831-5.219-4.378,4.869,0.533-0.441c3.848-4.161,10.348-6.936,15.017-10.122c11.703-7.986,23.885-16.28,33.179-27.094
					c21.414-24.915,10.104-48.296-7.844-71.346c-24.756-31.794-52.275-61.328-82.48-88.013
					c-11.158-9.858-20.034-19.268-35.775-19.031c-11.81,0.178-22.349,5.754-31.535,12.671c-8.778,6.609-16.68,16.902-26.723,21.463
					c-12.335,5.602-28.766,0.245-40.441-5.497c-11.925-5.865-23.721-12.847-35.009-19.863c-6.567-4.081-15.876-9.097-19.582-16.268
					c-4.05-7.835-2.465-19.774-3.281-28.329c-3.494-36.608-21.934-51.871-57.333-57.155c-27.605-4.121-55.943-6.98-83.866-5.288
					c-21.844,1.324-49.451,4.62-61.837,25.339c-7.423,12.417-9.659,27.774-9.075,41.989c0.741,18.048,11.874,45.971-2.992,60.048
					c-16.424,15.552,8.409,40.325,24.802,24.802c24.647-23.339,15.126-52.295,13.453-82.222
					c-1.493-26.708,7.991-32.857,33.181-34.737c23.714-1.77,47.967,0.078,71.505,3.137c8.117,1.055,20.335,1.127,27.456,5.133
					c15.875,8.932,8.909,36.383,12.409,51.4c5.924,25.412,31.011,38.867,51.93,50.751c22.515,12.791,44.738,24.739,71.542,24.208
					c24.203-0.479,36.908-18.754,55.132-31.325c13.622-9.397,18.878,1.244,29.934,11.388c14.358,13.173,28.115,26.993,41.22,41.413
					c12.666,13.937,25.528,28.403,36.322,43.865c10.56,15.126,0.266,22.093-12.679,31.786c-16.582,12.416-36.8,19.463-41.684,41.285
					c-5.281,23.591-3.353,49.722-2.438,73.667c0.707,18.481,0.917,31.148,17.958,41.177c16.735,9.849,35.862,14.95,51.981,26.093
					c3.742,2.587,7.991,5.5,10.8,9.19c1.535,2.017,5.197,10.12,4.786,6.852c-0.467-3.716-0.426,0.742-0.504,0.958
					c-1.23,3.433-3.198,6.718-4.876,9.952c-18.751,36.122-42.049,70.334-64.854,103.984c-3.777,5.573-7.581,13.622-12.614,18.176
					c-2.098,1.899,0.146-0.349,1.593-0.19c-4.411-0.485-8.362-2.908-12.178-4.978c-15.104-8.194-32.326-30.211-50.459-30.606
					c-17.646-0.384-37.06,19.503-50.101,29.148c-20.415,15.099-40.581,31.858-63.154,43.684c-5.156,2.701-9.035,9.297-8.686,15.143
					c0.495,8.306,0.991,16.613,1.486,24.919c0.544,9.127,5.232,26.704,2.104,35.289c-4.218,11.577-35.984,12.196-46.662,13.902
					c-28.404,4.538-56.903,8.569-85.605,10.666c-12.043,0.88-45.927,8.215-53.689-3.208c-3.601-5.299-2.292-16.048-3.392-22.008
					c-1.189-6.443-3.183-12.795-5.156-19.035c-8.893-28.116-22.717-42.163-46.154-59.555
					c-24.089-17.876-50.033-35.042-77.144-48.017c-25.3-12.109-44.034,1.303-66.966,14.043c-5.282,2.934-14.248,5.525-18.325,9.687
					c-0.465,0.209-0.929,0.418-1.394,0.626c-6.011,1.291-3.913,2.537,6.294,3.738c-0.129,0.128-4.338-4.176-3.994-3.666
					c-7.125-10.547-17.791-19.603-25.531-29.922c-17.445-23.261-35.619-49.024-45.745-76.49c-1.632-4.428-4.882-11.307-3.85-16.322
					c-1.193,5.795,4.643-0.665,9.519-3.193c18.923-9.813,39.558-16.413,57.433-28.236c6.294-4.163,14.86-9.306,18.56-16.037
					c5.771-10.497,3.066-28.79,2.817-40.293c-0.651-30.049-3.165-59.5,5.695-88.692c2.207-7.271-1.43-16.109-8.06-19.805
					c-12.389-6.906-49.082-19.564-46.839-37.378c2.37-18.822,21.987-42.967,32.639-58.107c6.797-9.662,14.101-18.905,21.908-27.771
					c0.807-0.916,8.013-10.676,5.974-9.479c2.194-1.288-7.123-1.774,2.81,0.706c23.062,5.757,34.957,32.998,59.256,36.957
					c35.451,5.777,74.43-19.104,101.481-38.91C820.892,909.558,803.412,879.109,785.161,892.471z"/>
				<path style="fill:#FFFFFF;" d="M1039.716,1077.205c2.163,2.245,4.215,4.573,6.204,6.974c0.666,0.804,0.912,1.164,0.127,0.123
					c0.468,0.621,0.932,1.245,1.388,1.876c0.911,1.261,1.795,2.542,2.65,3.842c1.71,2.6,3.307,5.275,4.785,8.014
					c0.739,1.37,1.448,2.756,2.127,4.156c0.339,0.7,0.671,1.404,0.996,2.112c0.127,0.276,1.368,3.156,0.747,1.656
					c-0.541-1.305,0.356,0.927,0.443,1.151c0.282,0.725,0.556,1.454,0.822,2.185c0.532,1.463,1.033,2.936,1.501,4.421
					c0.937,2.968,1.745,5.976,2.421,9.014c0.338,1.519,0.642,3.045,0.912,4.577c0.135,0.765,0.236,1.539,0.38,2.302
					c0.38,2.011-0.19-2.025,0.009,0.012c0.323,3.299,0.611,6.575,0.705,9.891c0.191,6.792,5.843,13.321,13.001,13.001
					c6.88-0.308,13.206-5.718,13.001-13.001c-0.848-30.078-12.945-59.019-33.832-80.691c-4.728-4.906-13.696-5.109-18.386,0
					C1034.88,1064.088,1034.672,1071.971,1039.716,1077.205L1039.716,1077.205z"/>
				<g>
					<path style="fill:#FFFFFF;" d="M1075.757,1212.311c16.731,0,16.759-26.002,0-26.002
						C1059.027,1186.31,1058.999,1212.311,1075.757,1212.311L1075.757,1212.311z"/>
				</g>
			</g>
		</g>
		<path style="fill:#B5A73A;" d="M693.704,674.179c-83.01,23.858-102.352,43.199-126.21,126.21
			c-23.858-83.01-43.199-102.352-126.21-126.21c83.011-23.858,102.352-43.199,126.21-126.21
			C591.352,630.979,610.693,650.32,693.704,674.179z"/>
		<path style="fill:#B5A73A;" d="M2183.704,1278.541c-103.906,29.864-128.115,54.073-157.979,157.979
			c-29.864-103.906-54.073-128.115-157.979-157.979c103.906-29.864,128.115-54.073,157.979-157.979
			C2055.588,1224.468,2079.798,1248.677,2183.704,1278.541z"/>
		<path style="fill:#B5AAAA;" d="M750.041,439.863c-23.045,6.624-28.414,11.993-35.038,35.038
			c-6.624-23.045-11.993-28.414-35.038-35.038c23.045-6.623,28.414-11.993,35.038-35.038
			C721.626,427.871,726.996,433.24,750.041,439.863z"/>
		<path style="fill:#B5AAAA;" d="M2070.319,999.391c-28.846,8.291-35.567,15.012-43.858,43.858
			c-8.291-28.846-15.012-35.567-43.858-43.858c28.846-8.291,35.567-15.012,43.858-43.858
			C2034.752,984.379,2041.473,991.1,2070.319,999.391z"/>
		<path style="fill:#B5AAAA;" d="M533.068,450.279c-13.008,3.739-16.039,6.77-19.778,19.778
			c-3.739-13.008-6.77-16.039-19.778-19.778c13.008-3.739,16.039-6.77,19.778-19.778C517.029,443.509,520.06,446.54,533.068,450.279
			z"/>
	</g>
	<ellipse style="opacity:0.33;fill:#968D8D;" cx="1278.659" cy="1868.09" rx="477.51" ry="55.158"/>
</g>
</svg>
